<svg width="26" height="26" viewBox="0 0 26 26" fill="none" xmlns="http://www.w3.org/2000/svg">
<path d="M8.71481 22.8421C8.2764 23.2805 7.56559 23.2805 7.12717 22.8421L3.15831 18.8732C2.71989 18.4348 2.71989 17.724 3.15831 17.2856L20.1151 0.328812C20.5535 -0.109604 21.2643 -0.109604 21.7027 0.328812L25.6716 4.29767C26.11 4.73609 26.11 5.4469 25.6716 5.88532L8.71481 22.8421Z" fill="#404040"/>
<path d="M2.83836 20.4074L5.59255 23.1616C6.20939 23.7785 5.91778 24.8324 5.07159 25.0444L1.39653 25.9653C0.573927 26.1714 -0.17143 25.4261 0.0346934 24.6035L0.955572 20.9284C1.1676 20.0822 2.22152 19.7906 2.83836 20.4074Z" fill="#404040"/>
</svg>
