<svg width="23" height="26" viewBox="0 0 23 26" fill="none" xmlns="http://www.w3.org/2000/svg">
<path d="M22.1153 3.7143H15.9231V2.78571C15.9231 1.2472 14.7349 0 13.2692 0H9.73077C8.26509 0 7.07693 1.2472 7.07693 2.78571V3.7143H0.884629C0.396054 3.7143 0 4.13003 0 4.64289C0 5.15574 0.396106 5.57142 0.884629 5.57142H1.84618L3.53847 25.1559C3.58019 25.6355 3.96432 26.002 4.42309 26H18.5769C19.0357 26.002 19.4198 25.6355 19.4615 25.1559L21.1538 5.57142H22.1154C22.6039 5.57142 23 5.15569 23 4.64283C23 4.12998 22.6039 3.7143 22.1153 3.7143ZM8.84614 2.78571C8.84614 2.27286 9.24219 1.85712 9.73077 1.85712H13.2692C13.7578 1.85712 14.1539 2.27286 14.1539 2.78571V3.7143H8.84619V2.78571H8.84614ZM17.7692 24.1428H5.23075L3.62694 5.57142H7.96156H19.3775L17.7692 24.1428Z" fill="#DB1A1A"/>
<path d="M8.84722 21.2948C8.84712 21.2936 8.84707 21.2923 8.84696 21.291L7.96233 8.29105C7.92766 7.77819 7.50346 7.392 7.01493 7.4284C6.52635 7.4648 6.15844 7.91008 6.19312 8.42288L7.07775 21.4229C7.11077 21.9098 7.49734 22.2868 7.96238 22.2855H8.02609C8.51347 22.25 8.88112 21.8064 8.84722 21.2948Z" fill="#DB1A1A"/>
<path d="M11.5005 7.42847C11.0119 7.42847 10.6159 7.8442 10.6159 8.35706V21.357C10.6159 21.8699 11.0119 22.2856 11.5005 22.2856C11.9891 22.2856 12.3851 21.8699 12.3851 21.357V8.35706C12.3851 7.8442 11.9891 7.42847 11.5005 7.42847Z" fill="#DB1A1A"/>
<path d="M15.9861 7.4284C15.4976 7.392 15.0734 7.77819 15.0387 8.29105L14.1541 21.291C14.1183 21.8025 14.4842 22.2476 14.9714 22.2852C14.973 22.2853 14.9744 22.2854 14.9759 22.2855H15.0387C15.5038 22.2868 15.8903 21.9098 15.9234 21.4229L16.808 8.42288C16.8427 7.91008 16.4747 7.46485 15.9861 7.4284Z" fill="#DB1A1A"/>
</svg>
